<?xml version="1.0" encoding="iso-8859-1"?><!-- Generator: Adobe Illustrator 21.0.2, SVG Export Plug-In . SVG Version: 6.00 Build 0)  --><svg xmlns="http://www.w3.org/2000/svg" xmlns:xlink="http://www.w3.org/1999/xlink" viewBox="0 0 50 50" width="50px" height="50px"><g><path d="M20,26c-0.668,0-4,0.241-4,5c0,3.69,2.154,5,4,5c1.971,0,3.598-1.038,4.857-2.697c-1.023-1.435-1.901-3.459-2.404-6.118C21.909,26.421,20.686,26,20,26z"/><path d="M25.94,13.008C25.24,13.201,24,16.661,24,22c0,1.706,0.132,3.211,0.356,4.527c0.02,0.067,0.031,0.135,0.036,0.203c0.363,2.013,0.946,3.572,1.604,4.721C27.315,28.812,28,25.354,28,22C28,16.516,26.566,13.425,25.94,13.008z"/><path d="M25,2C12.317,2,2,12.318,2,25s10.317,23,23,23s23-10.318,23-23S37.683,2,25,2z M34.948,28.317C33.867,31.56,32.388,36,29,36c-0.879,0-1.866-0.397-2.816-1.218C24.594,36.757,22.522,38,20,38c-2.89,0-6-2.19-6-7c0-5.526,3.771-7,6-7c0.542,0,1.322,0.145,2.096,0.482C22.033,23.697,22,22.871,22,22c0-1.126,0.112-11,4-11c2.504,0,4,5.593,4,11c0,3.983-0.924,8.095-2.703,11.152C27.913,33.728,28.516,34,29,34c1.946,0,3.213-3.8,4.051-6.315c0.175-0.525,0.746-0.804,1.265-0.633C34.84,27.227,35.123,27.793,34.948,28.317z"/></g></svg>